<?xml version="1.0" encoding="iso-8859-1"?>
<!-- Uploaded to: SVG Repo, www.svgrepo.com, Generator: SVG Repo Mixer Tools -->
<!DOCTYPE svg PUBLIC "-//W3C//DTD SVG 1.1//EN" "http://www.w3.org/Graphics/SVG/1.1/DTD/svg11.dtd">
<svg fill="#000000" version="1.1" id="Capa_1" xmlns="http://www.w3.org/2000/svg" xmlns:xlink="http://www.w3.org/1999/xlink" 
	 width="800px" height="800px" viewBox="0 0 42.116 42.116"
	 xml:space="preserve">
<g>
	<g>
		<path d="M21.059,0c-5.89,0-10.681,4.792-10.681,10.682s4.792,10.682,10.681,10.682c5.89,0,10.681-4.792,10.681-10.682
			S26.948,0,21.059,0z M21.059,19.363c-4.787,0-8.681-3.896-8.681-8.682c0-4.787,3.895-8.682,8.681-8.682s8.681,3.895,8.681,8.682
			C29.739,15.468,25.846,19.363,21.059,19.363z"/>
		<path d="M25.608,9.682h-3.55v-3.55c0-0.553-0.448-1-1-1c-0.552,0-1,0.447-1,1v3.55h-3.55c-0.552,0-1,0.447-1,1
			c0,0.553,0.448,1,1,1h3.55v3.551c0,0.553,0.448,1,1,1c0.552,0,1-0.447,1-1v-3.551h3.55c0.553,0,1-0.447,1-1
			C26.608,10.129,26.161,9.682,25.608,9.682z"/>
		<path d="M35.29,16.605c-0.553,0-1,0.447-1,1v1.758h-1.758c-0.552,0-1,0.447-1,1c0,0.553,0.448,1,1,1h1.758v1.758
			c0,0.553,0.447,1,1,1c0.552,0,1-0.447,1-1v-1.758h1.758c0.552,0,1-0.447,1-1c0-0.553-0.448-1-1-1H36.29v-1.758
			C36.29,17.053,35.843,16.605,35.29,16.605z"/>
		<path d="M7.794,16.362c-0.552,0-1,0.447-1,1v2.976H3.82c-0.552,0-1,0.447-1,1s0.448,1,1,1h2.975v2.975c0,0.554,0.448,1,1,1
			c0.552,0,1-0.446,1-1v-2.975h2.976c0.552,0,1-0.447,1-1s-0.448-1-1-1H8.794v-2.976C8.794,16.81,8.348,16.362,7.794,16.362z"/>
		<path d="M15.475,40.115H7.729c-2.189,0-3.971-1.781-3.971-3.971c0-2.19,1.781-3.973,3.971-3.973h10.843
			c2.189,0,3.971,1.781,3.971,3.973c0,0.553,0.448,1,1,1c0.552,0,1-0.447,1-1c0-3.293-2.678-5.973-5.971-5.973H7.729
			c-3.292,0-5.971,2.68-5.971,5.973c0,3.291,2.678,5.971,5.971,5.971h7.745c0.552,0,1-0.447,1-1S16.028,40.115,15.475,40.115z"/>
		<path d="M34.388,30.173h-7.745c-0.552,0-1,0.447-1,1c0,0.554,0.448,1,1,1h7.745c2.189,0,3.971,1.781,3.971,3.972
			c0,2.189-1.781,3.972-3.971,3.972H23.544c-2.189,0-3.971-1.781-3.971-3.972c0-0.553-0.448-1-1-1c-0.552,0-1,0.447-1,1
			c0,3.293,2.678,5.972,5.971,5.972h10.843c3.292,0,5.971-2.679,5.971-5.972S37.68,30.173,34.388,30.173z"/>
	</g>
</g>
</svg>